<?xml version="1.0" standalone="no"?>
<!DOCTYPE svg PUBLIC "-//W3C//DTD SVG 20010904//EN"
 "http://www.w3.org/TR/2001/REC-SVG-20010904/DTD/svg10.dtd">
<svg version="1.0" xmlns="http://www.w3.org/2000/svg"
 width="512.000000pt" height="512.000000pt" viewBox="0 0 512.000000 512.000000"
 preserveAspectRatio="xMidYMid meet">

<g transform="translate(0.000000,512.000000) scale(0.100000,-0.100000)"
fill="#000000" stroke="none">
<path d="M402 4861 c-120 -41 -183 -163 -148 -285 27 -93 96 -152 198 -171 51
-10 140 18 185 58 46 41 83 119 83 177 0 98 -75 196 -172 225 -65 19 -81 19
-146 -4z"/>
<path d="M4562 4861 c-86 -30 -139 -95 -157 -193 -10 -51 18 -140 58 -185 41
-46 119 -83 177 -83 26 0 66 10 95 24 199 92 182 379 -27 441 -65 19 -81 19
-146 -4z"/>
<path d="M385 696 c-201 -93 -181 -380 31 -442 125 -36 252 33 289 158 19 64
19 72 0 136 -29 97 -127 172 -225 172 -26 0 -66 -10 -95 -24z"/>
<path d="M4562 701 c-65 -23 -107 -61 -138 -126 -31 -64 -31 -125 0 -190 93
-201 380 -181 442 31 36 125 -33 252 -158 289 -65 19 -81 19 -146 -4z"/>
</g>
</svg>
